<svg width="24" height="24" viewBox="0 0 24 24" fill="none" xmlns="http://www.w3.org/2000/svg">
<path d="M21.5 14.9847C21.4978 14.3851 21.3155 13.8 20.9768 13.305C20.6381 12.81 20.1585 12.4278 19.6 12.208L21.47 5.21622C21.5091 5.06732 21.5131 4.91141 21.4819 4.76067C21.4507 4.60994 21.385 4.46844 21.29 4.34725C21.1929 4.23369 21.0715 4.14333 20.9348 4.08283C20.798 4.02233 20.6495 3.99322 20.5 3.99766H6.8L6.47 2.73914C6.41263 2.5263 6.28638 2.3384 6.11093 2.2047C5.93547 2.07101 5.72068 1.99904 5.5 2.00001H3.5V3.99766H4.73L7.21 13.2468C7.2686 13.4647 7.39934 13.6564 7.58092 13.7906C7.76251 13.9248 7.98424 13.9936 8.21 13.9859H18.5C18.7652 13.9859 19.0196 14.0911 19.2071 14.2785C19.3946 14.4658 19.5 14.7198 19.5 14.9847C19.5 15.2496 19.3946 15.5037 19.2071 15.691C19.0196 15.8783 18.7652 15.9836 18.5 15.9836H5.5C5.23478 15.9836 4.98043 16.0888 4.79289 16.2761C4.60536 16.4634 4.5 16.7175 4.5 16.9824C4.5 17.2473 4.60536 17.5013 4.79289 17.6887C4.98043 17.876 5.23478 17.9812 5.5 17.9812H6.68C6.51554 18.4338 6.46269 18.9193 6.52593 19.3966C6.58917 19.874 6.76665 20.329 7.04332 20.7233C7.31999 21.1176 7.68772 21.4395 8.11535 21.6617C8.54299 21.884 9.01795 22 9.5 22C9.98205 22 10.457 21.884 10.8846 21.6617C11.3123 21.4395 11.68 21.1176 11.9567 20.7233C12.2334 20.329 12.4108 19.874 12.4741 19.3966C12.5373 18.9193 12.4845 18.4338 12.32 17.9812H14.68C14.5303 18.3933 14.4729 18.8332 14.512 19.2699C14.551 19.7066 14.6856 20.1294 14.906 20.5085C15.1265 20.8876 15.4276 21.2137 15.788 21.4639C16.1485 21.7141 16.5595 21.8822 16.9921 21.9565C17.4247 22.0307 17.8683 22.0092 18.2917 21.8936C18.715 21.7779 19.1078 21.5708 19.4424 21.287C19.7769 21.0031 20.045 20.6494 20.2277 20.2508C20.4105 19.8522 20.5034 19.4184 20.5 18.98C20.4981 18.464 20.3602 17.9576 20.1 17.5118C20.5276 17.2425 20.8802 16.8696 21.1249 16.4278C21.3697 15.986 21.4987 15.4896 21.5 14.9847ZM17.59 11.9883H9L7.34 5.99531H19.2L17.59 11.9883ZM9.5 19.9789C9.30222 19.9789 9.10888 19.9203 8.94443 19.8105C8.77998 19.7008 8.65181 19.5448 8.57612 19.3623C8.50043 19.1798 8.48063 18.9789 8.51921 18.7852C8.5578 18.5914 8.65304 18.4134 8.79289 18.2738C8.93275 18.1341 9.11093 18.0389 9.30491 18.0004C9.49889 17.9619 9.69996 17.9816 9.88268 18.0572C10.0654 18.1328 10.2216 18.2609 10.3315 18.4251C10.4414 18.5894 10.5 18.7825 10.5 18.98C10.5 19.2449 10.3946 19.499 10.2071 19.6863C10.0196 19.8736 9.76522 19.9789 9.5 19.9789ZM17.5 19.9789C17.3022 19.9789 17.1089 19.9203 16.9444 19.8105C16.78 19.7008 16.6518 19.5448 16.5761 19.3623C16.5004 19.1798 16.4806 18.9789 16.5192 18.7852C16.5578 18.5914 16.653 18.4134 16.7929 18.2738C16.9327 18.1341 17.1109 18.0389 17.3049 18.0004C17.4989 17.9619 17.7 17.9816 17.8827 18.0572C18.0654 18.1328 18.2216 18.2609 18.3315 18.4251C18.4414 18.5894 18.5 18.7825 18.5 18.98C18.5 19.2449 18.3946 19.499 18.2071 19.6863C18.0196 19.8736 17.7652 19.9789 17.5 19.9789Z" fill="#041E42"/>
</svg>
